<?xml version="1.0"?>
<svg xmlns="http://www.w3.org/2000/svg" viewBox="0 0 80 80">
    <path style="line-height:normal;text-indent:0;text-align:start;text-decoration-line:none;text-decoration-style:solid;text-decoration-color:#000;text-transform:none;block-progression:tb;isolation:auto;mix-blend-mode:normal" d="M 11 13 C 8.8026661 13 7 14.802666 7 17 L 7 63 C 7 65.197334 8.8026661 67 11 67 L 72 67 L 73 67 L 73 65 L 72 65 L 36 65 L 11 65 C 9.8833339 65 9 64.116666 9 63 L 9 17 C 9 15.883334 9.8833339 15 11 15 L 36 15 L 72 15 L 73 15 L 73 13 L 72 13 L 11 13 z M 36 15 A 1 1 0 0 0 35 16 A 1 1 0 0 0 36 17 A 1 1 0 0 0 37 16 A 1 1 0 0 0 36 15 z M 36 65 A 1 1 0 0 0 37 64 A 1 1 0 0 0 36 63 A 1 1 0 0 0 35 64 A 1 1 0 0 0 36 65 z M 36 19 A 1 1 0 0 0 35 20 A 1 1 0 0 0 36 21 A 1 1 0 0 0 37 20 A 1 1 0 0 0 36 19 z M 16 22 A 2 2 0 0 0 14 24 A 2 2 0 0 0 16 26 A 2 2 0 0 0 18 24 A 2 2 0 0 0 16 22 z M 21 23 L 21 25 L 31 25 L 31 23 L 21 23 z M 36 23 A 1 1 0 0 0 35 24 A 1 1 0 0 0 36 25 A 1 1 0 0 0 37 24 A 1 1 0 0 0 36 23 z M 36 27 A 1 1 0 0 0 35 28 A 1 1 0 0 0 36 29 A 1 1 0 0 0 37 28 A 1 1 0 0 0 36 27 z M 16 30 A 2 2 0 0 0 14 32 A 2 2 0 0 0 16 34 A 2 2 0 0 0 18 32 A 2 2 0 0 0 16 30 z M 21 31 L 21 33 L 31 33 L 31 31 L 21 31 z M 36 31 A 1 1 0 0 0 35 32 A 1 1 0 0 0 36 33 A 1 1 0 0 0 37 32 A 1 1 0 0 0 36 31 z M 36 35 A 1 1 0 0 0 35 36 A 1 1 0 0 0 36 37 A 1 1 0 0 0 37 36 A 1 1 0 0 0 36 35 z M 16 38 A 2 2 0 0 0 14 40 A 2 2 0 0 0 16 42 A 2 2 0 0 0 18 40 A 2 2 0 0 0 16 38 z M 21 39 L 21 41 L 31 41 L 31 39 L 21 39 z M 36 39 A 1 1 0 0 0 35 40 A 1 1 0 0 0 36 41 A 1 1 0 0 0 37 40 A 1 1 0 0 0 36 39 z M 36 43 A 1 1 0 0 0 35 44 A 1 1 0 0 0 36 45 A 1 1 0 0 0 37 44 A 1 1 0 0 0 36 43 z M 16 46 A 2 2 0 0 0 14 48 A 2 2 0 0 0 16 50 A 2 2 0 0 0 18 48 A 2 2 0 0 0 16 46 z M 21 47 L 21 49 L 31 49 L 31 47 L 21 47 z M 36 47 A 1 1 0 0 0 35 48 A 1 1 0 0 0 36 49 A 1 1 0 0 0 37 48 A 1 1 0 0 0 36 47 z M 36 51 A 1 1 0 0 0 35 52 A 1 1 0 0 0 36 53 A 1 1 0 0 0 37 52 A 1 1 0 0 0 36 51 z M 16 54 A 2 2 0 0 0 14 56 A 2 2 0 0 0 16 58 A 2 2 0 0 0 18 56 A 2 2 0 0 0 16 54 z M 21 55 L 21 57 L 31 57 L 31 55 L 21 55 z M 36 55 A 1 1 0 0 0 35 56 A 1 1 0 0 0 36 57 A 1 1 0 0 0 37 56 A 1 1 0 0 0 36 55 z M 36 59 A 1 1 0 0 0 35 60 A 1 1 0 0 0 36 61 A 1 1 0 0 0 37 60 A 1 1 0 0 0 36 59 z"/>
</svg>
